<svg id="图层_1" xmlns="http://www.w3.org/2000/svg" width="140" height="30" viewBox="0 0 140 30">
  <style>.st0{fill:#fff}</style>
  <path class="st0" d="M56.2 17.3H54c-1.3 1.9-3.5 2.4-4.5 2.5v.8c1.5-.1 4-.7 5.6-2.1 1.5 1.5 3.9 2 5.6 2.1v-.8c-1-.2-3.1-.6-4.5-2.5M59.4 24.2h-1.8c-.2.6-.7 1.6-1.2 2H56v-2.7h4.1v-.8H56v-1.1h3.7v-.8h-9.3v.8h3.7v1.1H50v.8h4.1v2.7h-.4c-.6-.4-1-1.4-1.2-2h-1.8c.3.9 1 1.8 1.5 2h-2.5v.8h10.6v-.8h-2.5c.6-.2 1.3-1.1 1.6-2M92.1 17.4h-1.7v7.5c0 1.4-.2 1.4-1 1.5v.8c2.2 0 2.7-.5 2.7-2.2v-7.6z"/>
  <path class="st0" d="M93.2 21.4c-.2.1-2.5 1.2-4.3 1.8v1.3c1.5-.4 3.7-1.7 4.3-2.2v-.9zM88.9 19.1h4.3v.8h-4.3z"/>
  <path class="st0" d="M96.6 24.2c-.7-.6-1.2-1.7-1.2-2.4H98c-.1.6-.7 1.8-1.4 2.4m.9.9c1.3-1.1 2.2-2.6 2.2-4.2h-2.1v-1.2h2.2v-.8h-2.2v-1.4h-1.8v1.4h-2.2v.8h2.2v1.2h-2.2c0 1.7.8 3.1 1.9 4.1-.7.5-1.7 1-2.8 1.3v.9c1.4-.2 2.7-.6 3.9-1.3 1.2.8 2.6 1.3 3.7 1.4v-.9c-1.2-.3-2-.8-2.8-1.3M79.5 21.2H81v-.8h-1.6v-1.6c.6-.1 1.1-.2 1.5-.4v-1c-1.3.7-3.5.9-5 .8v.8s.8.1 1.9 0v1.4h-1.9v.8h1.9c-.2 1.1-1.3 3.1-2.2 3.9v.8s1.3-.5 2.3-1.9v3.2h1.7v-3.7c.5.8 1.5 1.4 2 1.6v-.9c-1-.6-2-2-2.1-3M85.9 17.4h-1.7v2.5c-.4-.5-1-1.4-1.2-2h-1.5c.2 1 .9 1.9 1.1 2.1h1.5v2.7c-.5-.6-.9-1.4-1.2-2h-1.5c.3 1 .8 1.7 1.1 2.1H84v.9l-2.3.3v1l2.5-.4v2.5h1.7v-2.8l1.3-.2v-.9l-1.3.2v-6zM68.8 23.6c.8-1.2 1.6-2.6 1.8-3.9h-1.5c-.2.8-.6 1.7-1.1 2.6-.5-.9-.9-1.9-1.1-2.6h-1.5c.2 1.2 1 2.7 1.8 3.9-.7 1.1-1.6 2.1-2.4 2.7h1.3c.5-.3 1.1-.9 1.8-1.7.7.8 1.3 1.5 1.8 1.7H71c-.6-.5-1.5-1.6-2.2-2.7"/>
  <path class="st0" d="M72.7 17.6h-9.3v5.2c0 1.6-.1 2.9-1 3.8v.8c1.8-.7 2.7-2 2.7-4.5v-4.4H71v4.4c0 2.5 1 3.8 2.7 4.5v-.8c-.9-.9-1-2.2-1-3.8v-5.2zM60.7 8.5h-2.5v3.6c-.5.2-1.4.2-1.9.2-1.3 0-4.3-1.1-4.3-4 0-3.4 2.9-4.4 4.8-4.3 1.9 0 3 .6 3 .6l.6-1.2c-4.4-1.5-7.9-.4-9.2.8-1.2 1.1-1.8 2.4-1.8 4.1 0 1.2.5 2.7 1.8 3.7 1.2.9 2.9 1.4 4.9 1.4 1.7 0 3.3-.2 4.6-.6V8.5M71.1 11.1c.7-.8 1-2 1-3.4 0-1.3-.3-2.3-1-3-.7-.7-1.8-1.1-2.9-1.1-1.1 0-2.3.4-2.9 1.2-.7.8-1 2-1 3.4 0 1.3.3 2.3 1 3 .7.7 1.8 1.1 2.9 1.1 1.1 0 2.2-.4 2.9-1.2m-7.6.8c-1.2-.9-1.8-2.1-1.8-3.7 0-1.7.6-3 1.8-4.1 1.2-1 2.7-1.5 4.7-1.5 1.9 0 3.5.5 4.7 1.4 1.1 1 1.7 2.2 1.7 3.7 0 1.7-.6 3-1.8 4.1-1.2 1-2.7 1.5-4.7 1.5-1.9 0-3.4-.5-4.6-1.4M75.6 13.2V2.8h2.5v9.3h4.4v1.1zM131.3 12.2s1.1.1 1.7.1c1.3 0 2.8-.4 3.5-1.2.7-.8 1-1.9 1-3.4 0-1.3-.3-2.3-1-2.9-.7-.7-2.2-1-3.6-1-.6 0-1.6.1-1.6.1v8.3zm-2.5-9.6h5.4c1.8 0 3.3.4 4.3 1.3S140 6 140 7.7c0 1.8-.6 3.2-1.7 4.1-1.1 1-2.7 1.4-4.8 1.4h-4.7V2.6M98.2 13.1S94.7 3 94.6 2.8h2.7l2.5 7.3 2.9-7.3h1.6l2.7 6.9 2.7-6.9h1.6l-4.1 10.3h-1.5l-2.9-7.4-3 7.4h-1.6zM112.5 2.8h2.5v10.3h-2.5zM118.3 13.1h-1.5V2.8h1.7l7.1 7.1V2.8h1.5v10.3h-1.6l-7.2-7.2zM86 12.2s1.1.1 1.7.1c1.3 0 2.8-.4 3.5-1.2.7-.8 1-1.9 1-3.4 0-1.3-.3-2.3-1-2.9-.7-.7-2.2-1-3.6-1-.6-.1-1.6 0-1.6 0v8.4zm-2.5-9.6h5.4c1.8 0 3.3.4 4.3 1.3s1.5 2.1 1.5 3.8c0 1.8-.6 3.2-1.7 4.1-1.1 1-2.7 1.4-4.8 1.4h-4.7V2.6M40.6 5.2L44.7.5c.1-.1 0-.3-.1-.2C12.7 1.1.3 10.4 0 14.5c-.2 2.1 3.1 4 5.5 5.1.1 2.1 3.6 4.1 5.4 4.8.2 2 3.9 4.5 8.1 5.4.2 0 .3-.2.1-.3-3.2-1.4-4-2.8-4-4.2 0-2.8 9.5-4.9 16.9-5.3l3.8-4.4c.1-.1 0-.3-.1-.3-15.5.5-24.3 4.5-24.9 8.4-.9-.5-1.5-1.3-1.5-2.2 0-3 8.6-8.3 26.8-8.7l4-4.5c.1-.1 0-.3-.1-.3-20.5.1-33.8 6.2-34.5 11-.4-.2-1.5-1.1-1.5-2.3 0-4.4 14.6-11 36.6-11.5"/>
</svg>